<!DOCTYPE svg PUBLIC "-//W3C//DTD SVG 1.1//EN" "http://www.w3.org/Graphics/SVG/1.1/DTD/svg11.dtd">
<!-- Uploaded to: SVG Repo, www.svgrepo.com, Transformed by: SVG Repo Mixer Tools -->
<svg height="800px" width="800px" version="1.1" id="Layer_1" xmlns="http://www.w3.org/2000/svg" xmlns:xlink="http://www.w3.org/1999/xlink" viewBox="0 0 512 512" xml:space="preserve" fill="#000000">
<g id="SVGRepo_bgCarrier" stroke-width="0"/>
<g id="SVGRepo_tracerCarrier" stroke-linecap="round" stroke-linejoin="round"/>
<g id="SVGRepo_iconCarrier"> <circle style="fill:#ba862c;" cx="256" cy="256" r="256"/> <path style="fill:#b7b950;" d="M256,0c141.387,0,256,114.613,256,256S397.387,512,256,512C256,452.995,256,55.27,256,0z"/> <circle style="fill:#FFFFFF;" cx="256" cy="256" r="79.282"/> <g> <path style="fill:#644d3a;" d="M419.506,387.912l-23.805-23.417c27.153-27.601,42.725-67.148,42.725-108.498 c0-41.346-15.573-80.89-42.725-108.491l23.805-23.417c33.245,33.794,52.312,81.873,52.312,131.908 C471.818,306.035,452.752,354.116,419.506,387.912z"/> <path style="fill:#644d3a;" d="M375.637,348.66l-23.802-23.42c17.291-17.573,27.207-42.811,27.207-69.242 c0-26.426-9.917-51.663-27.207-69.239l23.804-23.417c23.384,23.769,36.796,57.541,36.796,92.656 C412.433,291.119,399.021,324.893,375.637,348.66z"/> </g> <path style="fill:#E9E9EA;" d="M256,176.716v158.57c43.788,0,79.285-35.497,79.285-79.284S299.788,176.716,256,176.716z"/> <path style="fill:#F1D849;" d="M256,163.246c-51.145,0-92.754,41.61-92.754,92.754s41.609,92.754,92.754,92.754 s92.754-41.61,92.754-92.754S307.145,163.246,256,163.246z M315.363,256c0,9.79-2.397,19.026-6.613,27.176l-36.055-29.005v-55.128 C297.324,206.275,315.363,229.064,315.363,256z M239.304,312.957c-4.556-1.338-8.883-3.208-12.916-5.54l12.916-10.391V312.957z M272.696,297.026l12.916,10.39c-4.033,2.332-8.36,4.202-12.916,5.54V297.026z M239.304,199.043v55.128l-36.055,29.005 c-4.216-8.15-6.613-17.386-6.613-27.176C196.637,229.064,214.676,206.275,239.304,199.043z"/> <path style="fill:#E8BA44;" d="M256,163.246v185.509c51.145,0,92.754-41.61,92.754-92.754S307.145,163.246,256,163.246z M272.696,312.957v-15.931l12.916,10.39C281.579,309.749,277.251,311.619,272.696,312.957z M308.75,283.176l-36.055-29.005v-55.128 c24.628,7.231,42.667,30.021,42.667,56.957C315.363,265.79,312.966,275.026,308.75,283.176z"/> </g>
</svg>